<mxfile host="65bd71144e">
    <diagram id="ZBXDY4TnzOMfjAQrrSDn" name="Page-1">
        <mxGraphModel dx="905" dy="1749" grid="1" gridSize="10" guides="1" tooltips="1" connect="1" arrows="1" fold="1" page="1" pageScale="1" pageWidth="850" pageHeight="1100" background="#ffffff" math="0" shadow="0">
            <root>
                <mxCell id="0"/>
                <mxCell id="1" parent="0"/>
                <mxCell id="3" value="Firebase" style="rounded=0;whiteSpace=wrap;html=1;resizable=1;recursiveResize=0;verticalAlign=top;container=1;collapsible=0;" vertex="1" parent="1">
                    <mxGeometry x="400" y="-760" width="320" height="360" as="geometry"/>
                </mxCell>
                <mxCell id="5" value="&lt;span style=&quot;font-family: Arial, sans-serif; font-size: 14px; text-align: left; background-color: rgb(255, 255, 255);&quot;&gt;Authentication&lt;/span&gt;" style="rounded=0;whiteSpace=wrap;html=1;" vertex="1" parent="3">
                    <mxGeometry x="100" y="290" width="120" height="60" as="geometry"/>
                </mxCell>
                <mxCell id="12" value="" style="strokeColor=#dddddd;shadow=1;strokeWidth=1;rounded=1;absoluteArcSize=1;arcSize=2;fontColor=#000000;" vertex="1" parent="3">
                    <mxGeometry x="100" y="60" width="120" height="60" as="geometry"/>
                </mxCell>
                <mxCell id="13" value="Firestore" style="editableCssRules=.*;fontColor=#999999;shape=image;verticalLabelPosition=middle;labelBackgroundColor=#ffffff;verticalAlign=middle;labelPosition=right;align=left;spacingLeft=20;part=1;points=[];imageAspect=0;image=data:image/svg+xml,PHN2ZyB4bWxucz0iaHR0cDovL3d3dy53My5vcmcvMjAwMC9zdmciIHhtbG5zOnY9Imh0dHBzOi8vdmVjdGEuaW8vbmFubyIgd2lkdGg9IjMyMy45MDU2MTAzOTg2NzUxNSIgaGVpZ2h0PSIzNzYuNDIyMjk0OTYzNjg0MDciIHZpZXdCb3g9Ii0wLjA5NzAwMDAwMjg2MTAyMjk1IDAuMjg3OTk5OTg3NjAyMjMzOSA4NS42OTk5OTY5NDgyNDIxOSA5OS41OTUwMDEyMjA3MDMxMiI+JiN4YTs8c3R5bGUgdHlwZT0idGV4dC9jc3MiPiYjeGE7CS5zdDB7ZmlsbDojYWVjYmZhO30mI3hhOwkuc3Qxe2ZpbGw6IzY2OWRmNjt9JiN4YTsJLnN0MntmaWxsOiM0Mjg1ZjQ7fSYjeGE7PC9zdHlsZT4mI3hhOwk8cGF0aCBjbGFzcz0ic3QwIiBkPSJNLS4wOTcgNzUuODE1VjU1Ljg3NGw0Mi44NS0yMC4xODN2MTkuMDd6bTAtMzUuNDAzVjIwLjQ3MUw0Mi43NTMuMjg4djE5LjA3eiIvPiYjeGE7CTxwYXRoIGNsYXNzPSJzdDEiIGQ9Ik04NS42MDMgNzUuODE1VjU1Ljg3NGwtNDIuODUtMjAuMTgzdjE5LjA3em0wLTM1LjQwM1YyMC40NzFMNDIuNzUzLjI4OHYxOS4wN3oiLz4mI3hhOwk8cGF0aCBjbGFzcz0ic3QyIiBkPSJNNDIuNzUzIDgwLjMxNGwxNi4yMTctNy41MjUgMjEuMDg0IDkuNzE3LTM3LjMwMSAxNy4zNzd6Ii8+JiN4YTs8L3N2Zz4=;" vertex="1" parent="12">
                    <mxGeometry width="26" height="30" relative="1" as="geometry">
                        <mxPoint x="17" y="15" as="offset"/>
                    </mxGeometry>
                </mxCell>
                <mxCell id="9" value="ログイン情報の確認" style="edgeStyle=none;html=1;fontColor=#000000;entryX=0.718;entryY=-0.002;entryDx=0;entryDy=0;entryPerimeter=0;fillColor=#dae8fc;strokeColor=#6c8ebf;" edge="1" parent="1" source="2" target="5">
                    <mxGeometry x="-0.5196" relative="1" as="geometry">
                        <mxPoint y="-1" as="offset"/>
                    </mxGeometry>
                </mxCell>
                <mxCell id="2" value="FastAPI (SplitAPI)" style="rounded=0;whiteSpace=wrap;html=1;container=1;recursiveResize=0;collapsible=0;verticalAlign=middle;" vertex="1" parent="1">
                    <mxGeometry x="40" y="-760" width="320" height="80" as="geometry"/>
                </mxCell>
                <mxCell id="8" value="ログイン" style="edgeStyle=none;html=1;entryX=0;entryY=0.5;entryDx=0;entryDy=0;fontColor=#000000;fillColor=#dae8fc;strokeColor=#6c8ebf;spacing=10;spacingBottom=0;spacingRight=4;shadow=0;" edge="1" parent="1" source="4" target="5">
                    <mxGeometry relative="1" as="geometry">
                        <mxPoint as="offset"/>
                    </mxGeometry>
                </mxCell>
                <mxCell id="11" value="データの追加" style="edgeStyle=none;html=1;entryX=0.5;entryY=1;entryDx=0;entryDy=0;fontColor=#000000;fillColor=#d5e8d4;strokeColor=#82b366;" edge="1" parent="1" source="4" target="2">
                    <mxGeometry relative="1" as="geometry"/>
                </mxCell>
                <mxCell id="4" value="Android (SplitApp)" style="rounded=0;whiteSpace=wrap;html=1;resizable=1;container=1;recursiveResize=0;collapsible=0;verticalAlign=middle;" vertex="1" parent="1">
                    <mxGeometry x="40" y="-480" width="320" height="80" as="geometry"/>
                </mxCell>
                <mxCell id="7" value="データの書き込み" style="edgeStyle=none;html=1;entryX=0;entryY=0.5;entryDx=0;entryDy=0;fontColor=#000000;fillColor=#d5e8d4;strokeColor=#82b366;" edge="1" parent="1" source="2" target="12">
                    <mxGeometry relative="1" as="geometry">
                        <mxPoint x="500" y="-680" as="targetPoint"/>
                    </mxGeometry>
                </mxCell>
                <mxCell id="10" value="データの取得" style="edgeStyle=none;html=1;fontColor=#000000;exitX=0.075;exitY=1.017;exitDx=0;exitDy=0;exitPerimeter=0;jumpStyle=arc;fillColor=#d5e8d4;strokeColor=#82b366;" edge="1" parent="1" source="12" target="4">
                    <mxGeometry x="0.4153" y="-1" relative="1" as="geometry">
                        <mxPoint x="506" y="-650" as="sourcePoint"/>
                        <mxPoint as="offset"/>
                    </mxGeometry>
                </mxCell>
            </root>
        </mxGraphModel>
    </diagram>
</mxfile>